<svg width="1089" height="564" xmlns="http://www.w3.org/2000/svg" xmlns:xlink="http://www.w3.org/1999/xlink">
  <defs>
    <path d="M804.5 27h-520C143.39 27 29 141.39 29 282.5S143.39 538 284.5 538h520c141.11 0 255.5-114.39 255.5-255.5S945.61 27 804.5 27zm230 255.25c0 126.47-102.53 229-229 229h-522c-126.47 0-229-102.53-229-229s102.53-229 229-229h522c126.47 0 229 102.53 229 229z" id="b"/>
    <filter x="-3.6%" y="-7.3%" width="107.3%" height="114.7%" filterUnits="objectBoundingBox" id="a">
      <feOffset in="SourceAlpha" result="shadowOffsetOuter1"/>
      <feGaussianBlur stdDeviation="12.5" in="shadowOffsetOuter1" result="shadowBlurOuter1"/>
      <feColorMatrix values="0 0 0 0 0 0 0 0 0 0 0 0 0 0 0 0 0 0 0.5 0" in="shadowBlurOuter1"/>
    </filter>
  </defs>
  <g fill="none">
    <rect fill="#9B272C" x=".5" width="1088" height="564" rx="282"/>
    <use fill="#000" filter="url(#a)" xlink:href="#b"/>
    <use fill="#8A2126" fill-rule="evenodd" xlink:href="#b"/>
    <path d="M804.50873 27H282.49127C140.8338 27 26 141.39 26 282.5S140.8338 538 282.49127 538h522.01746C946.1662 538 1061 423.61 1061 282.5S946.1662 27 804.50873 27zM1036 282c0 126.47-102.94849 229-229.9347 229H281.9347C154.94848 511 52 408.47 52 282S154.94849 53 281.9347 53h524.1306C933.05152 53 1036 155.53 1036 282z" fill="#8A2126"/>
    <path d="M818.37 0H269.63C120.72 0 0 126.26 0 282s120.72 282 269.63 282h548.74C967.28 564 1088 437.74 1088 282S967.28 0 818.37 0zm242.72 281.72c0 139.59-108.19 252.75-241.66 252.75H268.57c-133.47 0-241.66-113.16-241.66-252.75S135.1 29 268.57 29h550.86c133.47 0 241.66 113.16 241.66 252.75v-.03z" fill="#FF5C5C"/>
  </g>
</svg>